<?xml version="1.0" encoding="utf-8"?><svg xmlns="http://www.w3.org/2000/svg" xmlns:xlink="http://www.w3.org/1999/xlink" style="display: none;">
<symbol viewBox="0 0 15.937 15" id="Cup">
	<path d="M7.92 9.03a5.186 5.186 0 01-5-5.34V.5a.5.5 0 01.5-.5h8.993a.5.5 0 01.5.5v3.19A5.185 5.185 0 017.92 9.03zM3.92 1v2.69a4.01 4.01 0 107.993 0V1H3.92zm3.992 12.48a.5.5 0 01-.5-.5V8.84a.5.5 0 011 0v4.14a.5.5 0 01-.497.5zm2.045 0H5.915a.5.5 0 01-.5-.5.5.5 0 01.5-.5h4.042a.5.5 0 01.5.5.5.5 0 01-.497.5zM11.451 15h-7.03a.5.5 0 110-1h7.03a.5.5 0 01.003 1zm1.076-9.5a.5.5 0 01-.5-.5.5.5 0 01.5-.5 2.367 2.367 0 001.921-.71A2.717 2.717 0 0014.913 2h-2.3a.5.5 0 01-.5-.5.5.5 0 01.5-.5h2.75a.5.5 0 01.49.4 4.016 4.016 0 01-.624 3.02A3.289 3.289 0 0112.53 5.5zm-9.145 0a3.29 3.29 0 01-2.7-1.08A4.019 4.019 0 01.059 1.4a.5.5 0 01.49-.4h2.75a.5.5 0 01.5.5.5.5 0 01-.5.5h-2.3a2.711 2.711 0 00.465 1.79 2.366 2.366 0 001.921.71.5.5 0 01.5.5.5.5 0 01-.5.5z" fill-rule="evenodd"/>
</symbol>
<symbol viewBox="0 0 10.531 15.97" id="Energy">
	<path d="M6.56 1L5.432 6.93l4.087.01-5.564 8.04 1.129-6.52-4.087-.02L6.56 1m0-1h-.08a.928.928 0 00-.432.17 1 1 0 00-.209.18.709.709 0 01-.052.07l-5.6 7.42a1 1 0 00-.084 1.04 1.029 1.029 0 00.889.55l2.887.02-.908 5.34a.994.994 0 00.59 1.1.941.941 0 00.4.09.919.919 0 00.766-.42l5.611-8.03a1 1 0 00-.806-1.59H6.64l.9-4.71A.941.941 0 007.568 1a1 1 0 00-.969-1h-.036z" fill-rule="evenodd"/>
</symbol>
<symbol viewBox="0 0 32 22" id="Envelope">
	<path d="M29.5 2.01c.55 0 .5-.05.5.5v16c0 .56.05 1.5-.5 1.5h-26a2.058 2.058 0 01-1.5-1.5v-16c0-.55.95-.5 1.5-.5H29m.5-2h-26C1.84.01 0 .86 0 2.51v16a3.919 3.919 0 003.5 3.5h26c1.66 0 2.5-1.84 2.5-3.5v-16a2.219 2.219 0 00-2.5-2.5zM16 15.11a.948.948 0 01-.65-.25l-15-12a1 1 0 111.3-1.51L16 12.79 30.34 1.35a1.02 1.02 0 011.42.1 1.007 1.007 0 01-.1 1.41l-15.01 12a.948.948 0 01-.65.25z" fill-rule="evenodd"/>
</symbol>
<symbol viewBox="0 0 32.031 32" id="Like">
	<path d="M19.039 31.984c-9.089 0-9.159-.376-10.285-1.224-.6-.45-1.723-.76-5.838-1.028a1.074 1.074 0 01-.773-.365A14.491 14.491 0 010 21.459c0-4.732 1.471-6.89 1.534-6.99a1 1 0 01.848-.47c3.378 0 8.062-4.313 11.211-11.841C14.137.858 14.25 0 16.25 0a3.878 3.878 0 013.042 1.859c1.291 2.135.636 6.721.029 9.171 2.062-.016 5.8-.045 7.572-.045 2.472 0 4.106 1.474 4.156 3.628a5.86 5.86 0 01-.283 2.089 3.7 3.7 0 011.276 2.414 4.288 4.288 0 01-1.42 2.989 4.154 4.154 0 01.366 1.547 4.111 4.111 0 01-2 3.055 5.8 5.8 0 01-.026 1.833c-.531 2.46-4.131 3.444-9.923 3.444zM3.447 27.7c3.584.3 5.5.7 6.51 1.459.783.589.662.822 9.082.822 2.568 0 7.59-.107 7.975-1.87a1.8 1.8 0 00-.593-1.4 1.015 1.015 0 01.519-1.306c.008 0 2-.719 2.05-1.835a1.568 1.568 0 00-.472-1.16 1.019 1.019 0 01.257-1.38 2.59 2.59 0 001.267-1.857 2.2 2.2 0 00-1.177-1.466 1.007 1.007 0 01-.306-1.482 3.35 3.35 0 00.49-1.566c-.037-1.623-1.782-1.674-2.156-1.674-2.522 0-9 .026-9 .026a.986.986 0 01-.839-.443 1.055 1.055 0 01-.092-.944c.977-2.814 1.523-7.228.617-8.735A1.217 1.217 0 0016.251 2a1.149 1.149 0 00-.813.929c-3.343 8-8.334 12.619-12.422 13.037a12.923 12.923 0 00-1.015 5.493A13.3 13.3 0 003.447 27.7z" fill-rule="evenodd"/>
</symbol>
<symbol viewBox="0 0 32 26" id="Monitor">
	<path d="M30 1.988v17.006H2V1.988h28m0-2H2a2.006 2.006 0 00-2 2v17.006a2.006 2.006 0 002 2h28a2.006 2.006 0 002-2V1.988a2.006 2.006 0 00-2-2zM17 20v4h5a1 1 0 010 2H10a1 1 0 010-2h5v-4h2z" fill-rule="evenodd"/>
</symbol>
<symbol viewBox="0 0 9 16" id="Mouse">
	<path d="M4.535 1a3.48 3.48 0 013.474 3.48v7.05A3.478 3.478 0 014.535 15a3.52 3.52 0 01-3.523-3.47V4.48A3.522 3.522 0 014.535 1m0-1A4.515 4.515 0 00.012 4.48v7.05a4.5 4.5 0 009 0V4.48A4.473 4.473 0 004.538 0zm-.019 3a.5.5 0 01.5.5V6a.5.5 0 01-1 0V3.5a.5.5 0 01.5-.5z" fill="#008ed6" fill-rule="evenodd"/>
</symbol>
<symbol viewBox="0 0 18 32" id="Phone">
	<path d="M15 2a1 1 0 011 1v26a1 1 0 01-1 1H2.99a1 1 0 01-1-1V3a1 1 0 011-1H15m0-2H2.99a3 3 0 00-3 3v26a3 3 0 003 3H15a3 3 0 003-3V3a3 3 0 00-3-3zM7 27a2 2 0 102-1.994A2 2 0 007 27zM7 3h4a1 1 0 010 2H7a1 1 0 010-2z" fill-rule="evenodd"/>
</symbol>
<symbol viewBox="0 0 24 32" id="Pointer">
	<path d="M12.125 1.99c6.829 0 9.885 5.12 9.885 10.2 0 4.48-3.19 10.42-9.483 17.66-.036.03-.086.07-.131.11-.046-.04-.1-.08-.133-.11l-.524-.6C7.633 24.54 2.01 18.09 2.01 12.19a10.293 10.293 0 0110.115-10.2m0-2A12.328 12.328 0 00.01 12.19c0 6.93 6.439 14.02 10.77 19a2.437 2.437 0 001.579.8h.076a2.429 2.429 0 001.575-.8c4.065-4.67 10-12.38 10-19S19.677-.01 12.125-.01zM12 8a4.02 4.02 0 01.046 8.04A4.075 4.075 0 018 12a4 4 0 014-4m.046-1.96a6 6 0 106 6 6 6 0 00-6-6z" fill-rule="evenodd"/>
</symbol>
<symbol viewBox="0 0 32 32" id="Settings">
	<path d="M30.016 12.971l-2.567-.57a11.754 11.754 0 00-.763-1.841l1.389-2.314a2.3 2.3 0 000-2.828L26.66 4a2.346 2.346 0 00-2.894-.089l-2.251 1.434a11.941 11.941 0 00-1.83-.767l-.576-2.6A2.347 2.347 0 0017 0h-2a2.294 2.294 0 00-2 2l-.642 2.566a11.939 11.939 0 00-1.947.819l-2.308-1.47a2.348 2.348 0 00-2.895.089L3.794 5.418a2.294 2.294 0 000 2.828l1.461 2.435a11.936 11.936 0 00-.705 1.72l-2.566.57A2.345 2.345 0 000 15.08v2a2.3 2.3 0 002 2l2.6.649a11.7 11.7 0 00.658 1.593l-1.463 2.437a2.3 2.3 0 000 2.829L5.209 28a2.346 2.346 0 002.894.088l2.313-1.473a11.907 11.907 0 001.959.823l.641 2.56a2.293 2.293 0 002 2h2a2.347 2.347 0 002.109-1.985l.577-2.6a11.855 11.855 0 001.808-.758l2.256 1.437A2.346 2.346 0 0026.66 28l1.415-1.414a2.3 2.3 0 000-2.829l-1.39-2.316a11.912 11.912 0 00.716-1.714l2.6-.649a2.3 2.3 0 002-2v-2a2.345 2.345 0 00-1.985-2.107zM30 16.939a1.312 1.312 0 01-.448.192l-3.708.925-.344 1.051a10.144 10.144 0 01-.6 1.429l-.5.986 1.959 3.267a1.4 1.4 0 01.2.484l-1.315 1.314a1.6 1.6 0 01-.341-.14l-3.292-2.1-1.023.53a9.85 9.85 0 01-1.5.63l-1.09.353-.824 3.723a.769.769 0 01-.217.417h-1.8a1.3 1.3 0 01-.191-.448l-.921-3.681-1.065-.338a9.786 9.786 0 01-1.63-.685l-1.028-.543-3.292 2.1a.754.754 0 01-.409.142l-1.312-1.276a1.337 1.337 0 01.181-.449l2.046-3.408-.487-.98a9.857 9.857 0 01-.548-1.324l-.343-1.052-3.672-.918a1.394 1.394 0 01-.485-.2v-1.86a2.329 2.329 0 01.335-.142l3.773-.836.346-1.1a10.055 10.055 0 01.588-1.431l.487-.98-2.024-3.373a1.4 1.4 0 01-.2-.484L6.62 5.419a1.574 1.574 0 01.34.14l3.354 2.138 1.027-.542a10.029 10.029 0 011.622-.682l1.063-.339.912-3.648a1.411 1.411 0 01.2-.485H17c-.014.02.115.2.142.339l.839 3.794 1.089.352a9.973 9.973 0 011.523.639l1.023.532 3.224-2.054a.756.756 0 01.409-.143l1.312 1.276a1.312 1.312 0 01-.181.45l-1.98 3.3.5.987A9.59 9.59 0 0125.54 13l.346 1.1 3.7.821a.7.7 0 01.435.241zm-13.988 5.07a6.01 6.01 0 116.024-6.01 6.024 6.024 0 01-6.023 6.01zM16 12a4 4 0 104 4 4 4 0 00-4-4z" fill-rule="evenodd"/>
</symbol>
<symbol viewBox="0 0 16 14.88" id="Speedometer">
	<path d="M11.924 14.87a.5.5 0 01-.262-.92 6.99 6.99 0 10-7.372-.03.5.5 0 01.158.69.51.51 0 01-.689.16 7.993 7.993 0 118.427.03.5.5 0 01-.262.07zm3.412-6.37h-.914a.5.5 0 010-1h.914a.5.5 0 010 1zM1.585 8.49H.669a.5.5 0 01-.5-.5.5.5 0 01.5-.5h.914a.5.5 0 01.5.5.5.5 0 01-.498.5zm6.4-6.34a.5.5 0 01-.5-.5V.73a.5.5 0 111 0v.92a.5.5 0 01-.496.5zm-3.167.78a.5.5 0 01-.434-.25l-.457-.79a.5.5 0 11.866-.5l.457.79a.5.5 0 01-.183.68.455.455 0 01-.245.07zm9.531 9.2a.567.567 0 01-.25-.07l-.792-.46a.5.5 0 11.5-.86l.792.45a.508.508 0 01.184.69.5.5 0 01-.43.25zM2.475 5.27a.461.461 0 01-.25-.07l-.792-.45a.509.509 0 01-.183-.69.5.5 0 01.683-.18l.792.46a.5.5 0 01.184.68.5.5 0 01-.43.25zm-.791 6.86a.5.5 0 01-.433-.25.509.509 0 01.183-.69l.791-.45a.5.5 0 11.5.86l-.791.46a.567.567 0 01-.246.07zm11.874-6.86a.5.5 0 01-.25-.93l.791-.46a.5.5 0 01.684.18.508.508 0 01-.184.69l-.791.45a.461.461 0 01-.246.07zm-2.343-2.34a.455.455 0 01-.249-.07.5.5 0 01-.183-.68l.457-.79a.5.5 0 11.866.5l-.457.79a.5.5 0 01-.43.25zM6.983 8a1 1 0 101-1 1 1 0 00-.996 1zm4.885-2.25a.493.493 0 01-.183.68l-3.464 2a.5.5 0 11-.5-.86l3.464-2a.5.5 0 01.684.18z" fill-rule="evenodd"/>
</symbol>
<symbol viewBox="0 0 511.958 511.958" id="behance">
	<path d="M210.624 240.619c10.624-5.344 18.656-11.296 24.16-17.728 9.792-11.584 14.624-26.944 14.624-45.984 0-18.528-4.832-34.368-14.496-47.648-16.128-21.632-43.424-32.704-82.016-33.28H0v312.096h142.56c16.064 0 30.944-1.376 44.704-4.192 13.76-2.848 25.664-8.064 35.744-15.68 8.96-6.624 16.448-14.848 22.4-24.544 9.408-14.656 14.112-31.264 14.112-49.76 0-17.92-4.128-33.184-12.32-45.728-8.288-12.544-20.448-21.728-36.576-27.552zM63.072 150.187h68.864c15.136 0 27.616 1.632 37.408 4.864 11.328 4.704 16.992 14.272 16.992 28.864 0 13.088-4.32 22.24-12.864 27.392-8.608 5.152-19.776 7.744-33.472 7.744H63.072v-68.864zm108.896 198.24c-7.616 3.68-18.336 5.504-32.064 5.504H63.072v-83.232h77.888c13.568.096 24.128 1.888 31.68 5.248 13.44 6.08 20.128 17.216 20.128 33.504 0 19.2-6.912 32.128-20.8 38.976zm155.2-237.888h135.584v38.848H327.168zm182.688 153.312c-2.816-18.08-9.024-33.984-18.688-47.712-10.592-15.552-24.032-26.944-40.384-34.144-16.288-7.232-34.624-10.848-55.04-10.816-34.272 0-62.112 10.72-83.648 32-21.472 21.344-32.224 52.032-32.224 92.032 0 42.656 11.872 73.472 35.744 92.384 23.776 18.944 51.232 28.384 82.4 28.384 37.728 0 67.072-11.232 88.032-33.632 13.408-14.144 20.992-28.064 22.656-41.728H446.24c-3.616 6.752-7.808 12.032-12.608 15.872-8.704 7.04-20.032 10.56-33.92 10.56-13.216 0-24.416-2.912-33.76-8.704-15.424-9.28-23.488-25.536-24.512-48.672h170.464c.256-19.936-.384-35.264-2.048-45.824zm-166.88 5.984c2.24-15.008 7.68-26.912 16.32-35.712 8.64-8.768 20.864-13.184 36.512-13.216 14.432 0 26.496 4.128 36.32 12.416 9.696 8.352 15.168 20.48 16.288 36.512h-105.44z"/>
</symbol>
<symbol viewBox="0 0 438.533 438.533" id="dribbble">
	<path d="M409.133 109.203c-19.608-33.592-46.205-60.189-79.798-79.796C295.736 9.801 259.058 0 219.273 0c-39.781 0-76.47 9.801-110.063 29.407-33.595 19.604-60.192 46.201-79.8 79.796C9.801 142.8 0 179.489 0 219.267c0 39.78 9.804 76.463 29.407 110.062 19.607 33.592 46.204 60.189 79.799 79.798 33.597 19.605 70.283 29.407 110.063 29.407s76.47-9.802 110.065-29.407c33.593-19.602 60.189-46.206 79.795-79.798 19.603-33.596 29.403-70.284 29.403-110.062.001-39.782-9.8-76.472-29.399-110.064zM219.27 31.977c47.201 0 88.41 15.607 123.621 46.82l-3.569 4.993c-1.427 2.002-4.996 5.852-10.704 11.565-5.709 5.708-11.943 11.136-18.699 16.274-6.762 5.14-15.94 10.992-27.555 17.559-11.611 6.567-23.982 12.328-37.117 17.276-21.887-40.355-45.296-76.709-70.231-109.064 15.039-3.616 29.789-5.423 44.254-5.423zM72.524 103.06c18.271-23.026 40.537-40.73 66.806-53.1 23.601 31.405 46.82 67.381 69.662 107.921-57.862 15.227-115.532 22.841-173.014 22.838 6.094-28.739 18.275-54.628 36.546-77.659zM44.54 286.794c-8.376-21.412-12.563-43.923-12.563-67.527 0-2.666.098-4.665.286-5.996 68.905 0 132.955-8.848 192.149-26.553 6.092 11.8 11.136 22.364 15.133 31.693-.771.38-1.999.806-3.713 1.283-1.719.476-2.953.806-3.721.999l-10.561 3.711c-7.236 2.666-16.708 7.235-28.409 13.703-11.704 6.478-24.123 14.182-37.257 23.13-13.134 8.949-26.696 20.797-40.684 35.553-13.99 14.75-25.743 30.591-35.26 47.53-15.227-16.939-27.026-36.12-35.4-57.526zM219.27 406.56c-44.54 0-84.32-14.277-119.343-42.825l4.283 3.142c6.661-14.66 16.462-28.746 29.408-42.257 12.944-13.511 25.41-24.413 37.401-32.695 11.991-8.274 25.028-16.077 39.115-23.414 14.084-7.323 23.691-11.991 28.835-13.983 5.14-1.998 9.233-3.572 12.278-4.716l.568-.287h.575c18.647 48.916 31.977 96.313 39.968 142.184-23.602 9.902-47.961 14.848-73.088 14.851zm157.606-86.081c-14.086 21.796-31.696 39.834-52.817 54.104-7.81-43.776-19.985-88.415-36.549-133.902 37.877-5.907 76.8-3.142 116.771 8.274-4.189 25.886-13.326 49.732-27.405 71.524zm26.83-103.781a232.46 232.46 0 00-7.139-1.283c-2.854-.473-6.331-1.047-10.424-1.713-4.087-.666-8.662-1.283-13.702-1.855a549.162 549.162 0 00-16.136-1.569c-5.708-.478-11.8-.855-18.268-1.143a449.763 449.763 0 00-19.705-.428c-6.656 0-13.657.193-20.981.571a246.549 246.549 0 00-21.265 1.999c-.575-.953-1.287-2.524-2.143-4.714-.855-2.187-1.479-3.855-1.848-4.997a1895.128 1895.128 0 00-12.573-27.121c13.134-5.333 25.652-11.469 37.555-18.418 11.892-6.949 21.402-13.131 28.544-18.555a237.319 237.319 0 0020.27-17.277c6.379-6.09 10.513-10.323 12.423-12.703a286.978 286.978 0 005.424-6.995l.287-.288c27.788 33.88 41.974 72.897 42.538 117.059l-2.857-.57z"/>
</symbol>
<symbol viewBox="0 0 430.113 430.114" id="facebook">
	<path d="M158.081 83.3v59.218h-43.385v72.412h43.385v215.183h89.122V214.936h59.805s5.601-34.721 8.316-72.685H247.54V92.74c0-7.4 9.717-17.354 19.321-17.354h48.557V.001h-66.021C155.878-.004 158.081 72.48 158.081 83.3z"/>
</symbol>
<symbol viewBox="0 0 512 512" id="linkedin">
	<path d="M0 160h114.496v352H0zm426.368 4.128c-1.216-.384-2.368-.8-3.648-1.152a74.218 74.218 0 00-4.64-.896c-6.08-1.216-12.736-2.08-20.544-2.08-66.752 0-109.088 48.544-123.04 67.296V160H160v352h114.496V320s86.528-120.512 123.04-32v224H512V274.464c0-53.184-36.448-97.504-85.632-110.336z"/><circle cx="56" cy="56" r="56"/>
</symbol>
<symbol viewBox="0 0 512 512" id="twitter">
	<path d="M512 97.248c-19.04 8.352-39.328 13.888-60.48 16.576 21.76-12.992 38.368-33.408 46.176-58.016-20.288 12.096-42.688 20.64-66.56 25.408C411.872 60.704 384.416 48 354.464 48c-58.112 0-104.896 47.168-104.896 104.992 0 8.32.704 16.32 2.432 23.936-87.264-4.256-164.48-46.08-216.352-109.792-9.056 15.712-14.368 33.696-14.368 53.056 0 36.352 18.72 68.576 46.624 87.232-16.864-.32-33.408-5.216-47.424-12.928v1.152c0 51.008 36.384 93.376 84.096 103.136-8.544 2.336-17.856 3.456-27.52 3.456-6.72 0-13.504-.384-19.872-1.792 13.6 41.568 52.192 72.128 98.08 73.12-35.712 27.936-81.056 44.768-130.144 44.768-8.608 0-16.864-.384-25.12-1.44C46.496 446.88 101.6 464 161.024 464c193.152 0 298.752-160 298.752-298.688 0-4.64-.16-9.12-.384-13.568 20.832-14.784 38.336-33.248 52.608-54.496z"/>
</symbol>
</svg>